<svg width="54" height="46" viewBox="0 0 54 46" fill="none" xmlns="http://www.w3.org/2000/svg">
<path id="Vector" d="M53.5 40.25C53.5 41.775 52.8893 43.2375 51.8021 44.3159C50.715 45.3942 49.2406 46 47.7031 46H6.29688C4.75945 46 3.28499 45.3942 2.19787 44.3159C1.11074 43.2375 0.5 41.775 0.5 40.25L0.5 5.75C0.5 2.576 3.097 0 6.29688 0H47.7031C50.903 0 53.5 2.576 53.5 5.75V40.25ZM6.29688 4.92857C6.07724 4.92857 5.86661 5.01511 5.7113 5.16916C5.556 5.32321 5.46875 5.53214 5.46875 5.75V40.25C5.46875 40.7034 5.83975 41.0714 6.29688 41.0714H9.41063L9.51 40.9729L29.6401 21.0023C30.6919 19.9588 32.108 19.3563 33.5952 19.3196C35.0824 19.2829 36.5269 19.8148 37.6298 20.8051L48.5312 30.59V5.75C48.5312 5.53214 48.444 5.32321 48.2887 5.16916C48.1334 5.01511 47.9228 4.92857 47.7031 4.92857H6.29688ZM47.7031 41.0714C47.9228 41.0714 48.1334 40.9849 48.2887 40.8308C48.444 40.6768 48.5312 40.4679 48.5312 40.25V37.237L34.2941 24.4589C34.1365 24.3181 33.9304 24.2427 33.7184 24.2482C33.5064 24.2537 33.3046 24.3397 33.1546 24.4884L16.4331 41.0714H47.7031ZM23.6875 16.4286C23.7075 17.3037 23.5509 18.1739 23.2272 18.9882C22.9034 19.8025 22.4188 20.5444 21.802 21.1704C21.1852 21.7964 20.4485 22.2939 19.6352 22.6336C18.8219 22.9733 17.9483 23.1483 17.0658 23.1486C16.1834 23.1488 15.3098 22.9741 14.4963 22.6348C13.6828 22.2955 12.9458 21.7985 12.3287 21.1728C11.7115 20.5471 11.2266 19.8054 10.9024 18.9913C10.5783 18.1772 10.4213 17.307 10.4408 16.4319C10.4791 14.7149 11.1935 13.081 12.4311 11.8799C13.6687 10.6789 15.3311 10.0061 17.0625 10.0057C18.7939 10.0053 20.4567 10.6772 21.6949 11.8776C22.9331 13.0781 23.6484 14.7116 23.6875 16.4286ZM18.7188 16.4286C18.7188 15.9929 18.5443 15.575 18.2336 15.2669C17.923 14.9588 17.5018 14.7857 17.0625 14.7857C16.6232 14.7857 16.202 14.9588 15.8914 15.2669C15.5807 15.575 15.4062 15.9929 15.4062 16.4286C15.4062 16.8643 15.5807 17.2822 15.8914 17.5902C16.202 17.8983 16.6232 18.0714 17.0625 18.0714C17.5018 18.0714 17.923 17.8983 18.2336 17.5902C18.5443 17.2822 18.7188 16.8643 18.7188 16.4286Z" fill="black" fill-opacity="0.3"/>
</svg>
